{"glyphs":{":":{"x_min":0,"x_max":271,"ha":271,"o":"m 74 335 q 74 360 92 378 q 110 396 135 396 q 161 396 179 378 q 197 360 197 335 q 197 310 179 291 q 161 273 135 273 q 110 273 92 291 q 74 310 74 335 z m 74 50 q 74 75 92 93 q 110 111 135 111 q 161 111 179 93 q 197 75 197 50 q 197 24 179 6 q 161 -12 135 -12 q 110 -12 92 6 q 74 24 74 50 z"},"$":{"x_min":0,"x_max":490,"ha":490,"o":"m 200 622 l 200 670 l 222 670 l 222 625 q 242 627 254 627 q 266 627 289 625 l 289 670 l 311 670 l 311 623 q 381 612 416 577 q 450 542 450 501 q 450 475 435 460 q 420 446 402 446 q 383 446 370 460 q 357 474 357 496 q 357 528 387 542 q 401 548 401 553 q 401 561 378 577 q 356 593 311 600 l 311 359 q 456 298 456 175 q 456 119 420 69 q 384 20 311 -1 l 311 -106 l 289 -106 l 289 -7 q 252 -13 222 -11 l 222 -106 l 200 -106 l 200 -9 q 119 5 82 49 q 45 92 45 138 q 45 162 60 181 q 75 201 99 201 q 118 201 133 187 q 149 172 149 150 q 149 127 135 114 q 121 100 103 100 q 102 100 96 102 q 90 103 89 103 q 83 103 83 95 q 83 81 113 53 q 144 24 200 16 l 200 303 q 63 354 63 466 q 63 585 200 622 z m 222 600 l 222 394 q 242 385 289 369 l 289 601 l 257 603 q 250 603 237 602 q 224 600 222 600 z m 200 405 l 200 595 q 115 568 115 499 q 115 440 200 405 z m 289 18 l 289 262 l 222 291 l 222 14 q 232 13 239 13 q 252 13 289 18 z m 311 253 l 311 25 q 405 57 405 138 q 405 214 311 253 z"},"?":{"x_min":0,"x_max":438,"ha":438,"o":"m 209 188 l 188 188 q 180 230 180 255 q 180 362 247 414 q 313 466 332 488 q 350 511 350 543 q 350 582 316 610 q 283 639 232 639 q 185 639 154 615 q 123 591 123 573 q 123 566 142 565 q 161 564 174 550 q 187 535 187 517 q 187 498 173 484 q 158 470 138 470 q 115 470 99 486 q 84 502 84 534 q 84 586 127 624 q 170 662 232 662 q 310 662 356 609 q 402 556 402 489 q 402 438 377 399 q 353 359 273 304 q 207 258 207 213 q 207 200 209 188 z m 148 50 q 148 75 166 93 q 184 111 209 111 q 234 111 253 93 q 271 75 271 50 q 271 24 253 6 q 235 -12 209 -12 q 184 -12 166 6 q 148 24 148 50 z"},"<":{"x_min":0,"x_max":667,"ha":667,"o":"m 597 76 l 70 299 l 70 346 l 597 568 l 597 511 l 141 322 l 597 133 z"},"'":{"x_min":0,"x_max":180,"ha":180,"o":"m 78 385 l 52 530 q 41 590 41 611 q 41 670 88 670 q 109 670 124 656 q 138 642 138 618 q 138 598 135 578 l 99 385 z"},"=":{"x_min":0,"x_max":667,"ha":667,"o":"m 70 464 l 597 464 l 597 411 l 70 411 z m 70 236 l 597 236 l 597 183 l 70 183 z"},"a":{"x_min":0,"x_max":490,"ha":490,"o":"m 296 219 l 296 269 q 296 330 286 349 q 276 368 232 368 q 153 368 153 338 q 153 329 159 319 q 166 308 166 294 q 166 274 153 263 q 140 253 123 253 q 102 253 90 266 q 78 280 78 298 q 78 337 124 364 q 169 390 251 390 q 316 390 347 375 q 377 360 384 337 q 391 315 391 274 l 391 94 q 391 55 397 45 q 402 35 414 35 q 432 35 448 59 l 460 59 q 447 -12 377 -12 q 309 -12 296 66 q 239 -12 162 -12 q 111 -12 81 15 q 51 43 51 83 q 51 208 296 219 z m 296 144 l 296 197 q 206 193 177 170 q 148 146 148 101 q 148 68 165 50 q 183 32 205 32 q 234 32 257 52 q 280 71 288 90 q 296 110 296 144 z"},"L":{"x_min":0,"x_max":646,"ha":646,"o":"m 268 630 l 268 25 l 415 25 q 458 25 482 31 q 506 38 530 62 q 554 86 567 120 q 580 154 594 214 l 617 214 l 599 0 l 49 0 l 49 25 l 152 25 l 152 630 l 49 630 l 49 655 l 377 655 l 377 630 z"},"3":{"x_min":0,"x_max":490,"ha":490,"o":"m 253 342 l 253 340 q 360 331 401 281 q 442 232 442 172 q 442 96 378 41 q 314 -14 224 -14 q 154 -14 108 23 q 62 61 62 106 q 62 131 76 149 q 90 166 112 166 q 132 166 146 151 q 159 136 159 115 q 159 82 133 69 q 116 62 116 57 q 116 48 147 30 q 177 12 215 12 q 334 12 334 157 q 334 262 290 293 q 247 325 195 325 l 152 322 q 129 322 129 338 q 129 353 149 353 q 155 353 180 351 q 205 348 205 348 q 220 348 249 364 q 278 380 292 407 q 306 434 306 491 q 306 568 285 594 q 264 619 224 619 q 188 619 163 605 q 137 590 137 578 q 137 573 156 562 q 176 552 176 526 q 176 508 162 494 q 147 481 130 481 q 110 481 97 498 q 84 514 84 536 q 84 576 126 610 q 169 643 236 643 q 311 643 361 601 q 411 559 411 498 q 411 383 253 342 z"},";":{"x_min":0,"x_max":271,"ha":271,"o":"m 74 335 q 74 360 92 378 q 110 396 135 396 q 161 396 179 378 q 197 360 197 335 q 197 310 179 291 q 161 273 135 273 q 110 273 92 291 q 74 310 74 335 z m 119 -159 l 104 -143 q 192 -66 192 -3 q 192 40 173 40 q 165 40 160 24 q 147 -14 110 -14 q 88 -14 73 2 q 58 18 58 42 q 58 70 79 88 q 99 106 129 106 q 167 106 193 78 q 220 50 220 7 q 220 -74 119 -159 z"},"J":{"x_min":0,"x_max":542,"ha":542,"o":"m 170 655 l 494 655 l 494 630 l 398 630 l 398 169 q 398 83 380 35 q 362 -13 307 -50 q 252 -87 189 -87 q 128 -87 83 -54 q 39 -22 39 18 q 39 42 56 59 q 72 75 95 75 q 118 75 132 61 q 147 46 147 25 q 147 9 139 -4 q 126 -17 126 -27 q 126 -41 147 -51 q 167 -62 192 -62 q 234 -62 258 -35 q 282 -7 282 99 l 282 630 l 170 630 z"},"V":{"x_min":0,"x_max":708,"ha":708,"o":"m 22 655 l 335 655 l 335 630 l 231 630 l 401 168 l 403 168 l 560 630 l 454 630 l 454 655 l 686 655 l 686 630 l 586 630 l 366 -15 l 353 -15 l 110 630 l 22 630 z"},"\"":{"x_min":0,"x_max":408,"ha":408,"o":"m 283 385 l 257 530 q 246 590 246 611 q 246 670 293 670 q 314 670 328 656 q 343 642 343 618 q 343 598 340 578 l 304 385 z m 102 385 l 76 530 q 65 590 65 611 q 65 670 112 670 q 133 670 148 656 q 162 642 162 618 q 162 598 159 578 l 123 385 z"},"7":{"x_min":0,"x_max":490,"ha":490,"o":"m 103 632 l 445 632 l 377 466 q 375 457 344 382 q 312 307 300 258 q 287 209 287 177 q 287 148 301 104 q 314 61 314 40 q 314 21 300 3 q 286 -14 262 -14 q 235 -14 218 7 q 200 29 200 64 q 200 101 223 157 l 382 541 l 149 541 q 115 541 106 532 q 97 524 86 483 l 78 453 l 53 453 z"},"S":{"x_min":0,"x_max":542,"ha":542,"o":"m 450 662 l 453 492 l 430 492 q 381 645 258 645 q 189 645 152 607 q 114 569 114 529 q 114 491 145 465 q 177 438 260 424 q 344 410 387 389 q 431 368 461 320 q 491 271 491 209 q 491 113 428 49 q 366 -15 273 -15 q 197 -15 122 41 l 76 0 l 59 0 l 59 183 l 80 183 q 109 97 161 53 q 212 10 274 10 q 335 10 386 50 q 437 90 437 152 q 437 204 402 239 q 366 274 287 288 q 208 301 165 319 q 123 337 92 381 q 62 425 62 479 q 62 553 115 612 q 167 670 258 670 q 333 670 399 622 q 417 639 430 662 z"},"}":{"x_min":0,"x_max":480,"ha":480,"o":"m 88 646 l 88 663 q 174 650 222 594 q 271 538 271 475 q 271 437 260 395 q 249 353 249 319 q 249 289 276 257 q 303 226 360 217 l 360 198 q 303 189 276 158 q 249 126 249 96 q 249 62 260 20 q 271 -22 271 -60 q 271 -123 222 -179 q 174 -235 88 -248 l 88 -230 q 145 -218 171 -187 q 198 -155 198 -119 q 198 -78 186 -38 q 176 4 176 39 q 176 87 210 133 q 245 178 320 205 l 320 207 q 250 233 213 280 q 176 326 176 376 q 176 411 186 453 q 198 493 198 534 q 198 571 171 601 q 145 631 88 646 z"},"Z":{"x_min":0,"x_max":594,"ha":594,"o":"m 536 0 l 34 0 l 34 25 l 410 630 l 256 630 q 171 630 138 595 q 105 561 90 479 l 67 479 l 77 655 l 547 655 l 547 637 l 165 25 l 325 25 q 394 25 429 38 q 463 52 490 105 q 517 159 523 215 l 547 215 z"},"x":{"x_min":0,"x_max":542,"ha":542,"o":"m 307 223 l 474 25 l 521 25 l 521 0 l 292 0 l 292 25 l 356 25 l 246 156 l 127 25 l 204 25 l 204 0 l 24 0 l 24 25 l 98 25 l 232 172 l 76 359 l 21 359 l 21 384 l 259 384 l 259 359 l 194 359 l 292 240 l 400 359 l 325 359 l 325 384 l 502 384 l 502 359 l 429 359 z"},")":{"x_min":0,"x_max":323,"ha":323,"o":"m 43 662 l 69 662 q 171 556 216 436 q 261 315 261 204 q 261 84 212 -40 q 162 -164 69 -247 l 43 -247 q 177 -76 177 197 q 177 487 43 662 z"},"&":{"x_min":0,"x_max":708,"ha":708,"o":"m 380 362 l 494 180 q 496 174 510 155 q 571 238 584 383 l 489 383 l 489 408 l 682 408 l 682 383 l 607 383 q 597 227 524 135 l 603 25 l 676 25 l 676 0 l 480 0 q 458 31 441 52 q 356 -15 253 -15 q 150 -15 93 39 q 36 93 36 169 q 36 241 87 298 q 138 355 232 384 q 176 479 176 530 q 176 583 222 622 q 268 662 337 662 q 404 662 453 630 q 502 598 502 546 q 502 503 469 471 q 437 439 353 408 z m 341 428 q 388 447 403 474 q 417 500 417 545 q 417 637 339 637 q 309 637 290 621 q 270 605 270 581 q 270 538 341 428 z m 244 363 q 140 324 140 254 q 140 189 193 105 q 245 22 314 22 q 367 22 429 72 q 320 228 244 363 z"},"_":{"x_min":0,"x_max":500,"ha":500,"o":"m 506 -125 l -6 -125 l -6 -75 l 506 -75 z"},"v":{"x_min":0,"x_max":542,"ha":542,"o":"m 464 359 l 279 -15 l 266 -15 l 78 359 l 19 359 l 19 384 l 259 384 l 259 359 l 185 359 l 313 99 l 439 359 l 365 359 l 365 384 l 524 384 l 524 359 z"},"O":{"x_min":0,"x_max":708,"ha":708,"o":"m 354 -15 q 227 -15 138 91 q 50 198 50 319 q 50 464 143 567 q 236 670 359 670 q 475 670 566 565 q 658 461 658 328 q 658 191 566 88 q 474 -15 354 -15 z m 356 645 q 302 645 260 620 q 217 596 201 535 q 186 474 186 322 q 186 217 195 154 q 204 92 240 51 q 275 10 352 10 q 399 10 446 35 q 493 60 508 133 q 522 206 522 357 q 522 494 504 546 q 486 599 447 622 q 408 645 356 645 z"},"(":{"x_min":0,"x_max":323,"ha":323,"o":"m 280 -247 l 254 -247 q 152 -141 107 -20 q 62 101 62 211 q 62 331 111 455 q 161 579 254 662 l 280 662 q 146 491 146 218 q 146 -72 280 -247 z"},"C":{"x_min":0,"x_max":594,"ha":594,"o":"m 530 662 l 530 468 l 509 468 q 475 645 332 645 q 255 645 220 585 q 185 525 185 332 q 185 173 200 116 q 215 59 253 34 q 290 10 335 10 q 394 10 445 54 q 497 98 525 196 l 548 196 l 540 -4 l 520 -4 q 509 27 485 49 q 408 -15 326 -15 q 223 -15 137 83 q 52 181 52 323 q 52 468 136 569 q 220 670 330 670 q 415 670 480 609 q 499 639 509 662 z"},"W":{"x_min":0,"x_max":969,"ha":969,"o":"m 555 435 l 674 147 l 853 630 l 758 630 l 758 655 l 948 655 l 948 630 l 881 630 l 639 -15 l 622 -15 l 497 288 l 375 -15 l 357 -15 l 94 630 l 21 630 l 21 655 l 704 655 l 704 630 l 634 630 z m 476 630 l 542 469 l 607 630 z m 411 141 l 483 322 l 357 630 l 212 630 z"},"A":{"x_min":0,"x_max":708,"ha":708,"o":"m 419 204 l 211 204 l 144 25 l 265 25 l 265 0 l 28 0 l 28 25 l 118 25 l 357 670 l 372 670 l 601 25 l 689 25 l 689 0 l 377 0 l 377 25 l 483 25 z m 220 229 l 410 229 l 318 491 l 316 491 z"},"f":{"x_min":0,"x_max":323,"ha":323,"o":"m 106 25 l 106 359 l 25 359 l 25 384 l 106 384 q 102 513 159 588 q 217 662 296 662 q 334 662 362 640 q 390 618 390 587 q 390 565 377 551 q 363 536 343 536 q 325 536 312 548 q 300 561 300 579 q 300 608 332 627 q 317 640 289 640 q 262 640 237 624 q 213 607 208 573 q 202 540 202 466 l 202 384 l 293 384 l 293 359 l 202 359 l 202 25 l 284 25 l 284 0 l 33 0 l 33 25 z"},"Q":{"x_min":0,"x_max":708,"ha":708,"o":"m 598 -182 l 598 -207 q 582 -209 546 -209 q 456 -209 367 -164 q 278 -120 278 0 q 173 35 111 130 q 50 224 50 329 q 50 463 141 566 q 231 670 355 670 q 470 670 564 570 q 658 470 658 332 q 658 220 588 122 q 518 23 415 0 q 415 -106 451 -145 q 487 -183 598 -182 z m 356 645 q 302 645 257 618 q 211 590 199 529 q 186 467 186 312 q 186 207 194 147 q 203 88 239 49 q 275 10 354 10 q 413 10 455 40 q 497 71 510 139 q 522 207 522 350 q 522 487 506 543 q 489 598 444 622 q 399 645 356 645 z"},"w":{"x_min":0,"x_max":708,"ha":708,"o":"m 630 359 l 489 -12 l 472 -12 l 360 254 l 253 -12 l 237 -12 l 81 359 l 20 359 l 20 384 l 247 384 l 247 359 l 181 359 l 282 118 l 389 384 l 405 384 l 516 118 l 606 359 l 535 359 l 535 384 l 689 384 l 689 359 z"},"-":{"x_min":0,"x_max":323,"ha":323,"o":"m 57 248 l 266 248 l 266 167 l 57 167 z"},"E":{"x_min":0,"x_max":698,"ha":698,"o":"m 274 630 l 274 349 l 333 349 q 364 349 386 355 q 408 361 425 388 q 442 415 445 472 l 470 472 l 470 195 l 445 195 q 441 274 414 299 q 388 324 333 324 l 274 324 l 274 25 l 407 25 q 521 25 564 73 q 608 120 616 219 l 641 219 l 635 0 l 54 0 l 54 25 l 158 25 l 158 630 l 54 630 l 54 655 l 611 655 l 622 480 l 597 480 q 584 560 545 595 q 505 630 413 630 z"},"s":{"x_min":0,"x_max":375,"ha":375,"o":"m 305 388 l 305 279 l 285 279 q 263 374 176 374 q 138 374 113 354 q 88 334 88 309 q 88 288 106 275 q 124 263 190 254 q 336 236 336 121 q 336 64 298 26 q 260 -12 204 -12 q 149 -12 97 33 l 63 4 l 46 4 l 46 148 l 63 148 q 105 10 204 10 q 242 10 272 34 q 303 58 303 90 q 303 117 285 130 q 267 144 186 156 q 49 176 49 278 q 49 328 86 362 q 123 396 176 396 q 232 396 270 359 q 280 369 290 388 z"},">":{"x_min":0,"x_max":667,"ha":667,"o":"m 70 568 l 597 345 l 597 298 l 70 76 l 70 133 l 527 321 l 70 510 z"},"l":{"x_min":0,"x_max":271,"ha":271,"o":"m 90 25 l 90 630 l 20 630 l 20 655 l 87 655 q 154 655 185 662 l 185 25 l 254 25 l 254 0 l 20 0 l 20 25 z"},"8":{"x_min":0,"x_max":490,"ha":490,"o":"m 292 327 l 292 325 q 373 307 412 263 q 451 219 451 162 q 451 90 395 38 q 339 -14 245 -14 q 153 -14 96 36 q 40 86 40 158 q 40 225 87 270 q 133 314 207 325 l 207 327 q 132 341 95 385 q 57 429 57 482 q 57 547 111 595 q 166 642 245 642 q 332 642 384 594 q 436 545 436 482 q 436 434 400 388 q 363 343 292 327 z m 248 338 q 290 338 313 369 q 336 400 336 486 q 336 562 313 590 q 291 618 246 618 q 204 618 180 590 q 157 562 157 462 q 157 338 248 338 z m 244 10 q 297 10 322 40 q 347 71 347 153 q 347 311 245 311 q 197 311 170 276 q 144 240 144 146 q 144 70 167 40 q 191 10 244 10 z"},"\\":{"x_min":0,"x_max":281,"ha":281,"o":"m 0 670 l 53 670 l 281 -15 l 228 -15 z"},"e":{"x_min":0,"x_max":427,"ha":427,"o":"m 394 221 l 147 221 q 144 77 163 43 q 183 10 233 10 q 336 10 373 130 l 394 130 q 378 57 333 22 q 288 -12 233 -12 q 154 -12 96 46 q 38 104 38 193 q 38 279 95 337 q 152 396 227 396 q 292 396 342 350 q 391 303 394 221 z m 147 243 l 289 243 q 293 278 293 296 q 293 374 222 374 q 187 374 167 355 q 147 336 147 304 z"},"b":{"x_min":0,"x_max":542,"ha":542,"o":"m 193 662 l 193 319 l 195 319 q 231 396 315 396 q 387 396 440 335 q 493 274 493 194 q 493 115 441 51 q 389 -12 320 -12 q 237 -12 195 77 l 193 77 l 193 -6 q 159 0 101 0 l 30 0 l 30 25 l 98 25 l 98 630 l 30 630 l 30 655 l 98 655 q 159 655 193 662 z m 314 13 q 363 13 373 52 q 384 90 384 197 q 384 305 373 340 q 362 374 312 374 q 273 374 244 350 q 215 327 203 295 q 192 263 192 182 q 192 104 229 58 q 267 13 314 13 z"},"%":{"x_min":0,"x_max":927,"ha":927,"o":"m 232 326 q 180 326 142 374 q 103 422 103 492 q 103 570 143 619 q 183 668 235 668 q 287 668 325 618 q 364 569 364 498 q 364 427 326 377 q 289 326 232 326 z m 235 652 q 208 652 197 622 q 186 591 186 503 q 186 407 196 374 q 206 341 234 341 q 259 341 270 368 q 281 396 281 540 q 281 652 235 652 z m 727 668 l 245 -31 l 201 -31 l 682 668 z m 692 -31 q 640 -31 602 17 q 563 65 563 135 q 563 213 603 262 q 643 311 695 311 q 747 311 786 261 q 824 212 824 141 q 824 70 786 20 q 749 -31 692 -31 z m 695 295 q 667 295 657 264 q 646 234 646 146 q 646 49 656 17 q 666 -16 694 -16 q 719 -16 730 11 q 741 39 741 183 q 741 295 695 295 z"},"m":{"x_min":0,"x_max":813,"ha":813,"o":"m 105 25 l 105 359 l 36 359 l 36 384 l 79 384 q 155 384 200 390 l 200 296 l 202 296 q 241 390 340 390 q 448 390 459 290 l 461 290 q 503 390 602 390 q 646 390 676 368 q 706 346 713 317 q 720 289 720 222 l 720 25 l 788 25 l 788 0 l 561 0 l 561 25 l 625 25 l 625 266 q 625 323 618 345 q 612 366 583 366 q 543 366 502 322 q 460 277 460 152 l 460 25 l 523 25 l 523 0 l 302 0 l 302 25 l 365 25 l 365 214 q 365 324 357 345 q 349 366 319 366 q 277 366 246 330 q 215 293 208 258 q 200 224 200 148 l 200 25 l 263 25 l 263 0 l 36 0 l 36 25 z"},"#":{"x_min":0,"x_max":668,"ha":668,"o":"m 46 470 l 207 470 l 250 670 l 300 670 l 258 470 l 472 470 l 514 670 l 565 670 l 523 470 l 623 470 l 623 418 l 513 418 l 473 229 l 623 229 l 623 178 l 463 178 l 421 -22 l 370 -22 l 412 178 l 197 178 l 156 -22 l 104 -22 l 146 178 l 46 178 l 46 229 l 157 229 l 197 418 l 46 418 z m 463 418 l 248 418 l 208 230 l 424 230 z"},",":{"x_min":0,"x_max":271,"ha":271,"o":"m 119 -159 l 104 -143 q 192 -66 192 -3 q 192 40 173 40 q 165 40 160 24 q 147 -14 110 -14 q 88 -14 73 2 q 58 18 58 42 q 58 70 79 88 q 99 106 129 106 q 167 106 193 78 q 220 50 220 7 q 220 -74 119 -159 z"},"n":{"x_min":0,"x_max":542,"ha":542,"o":"m 99 25 l 99 359 l 30 359 l 30 384 l 74 384 q 140 384 194 391 l 194 296 l 196 296 q 246 396 338 396 q 381 396 408 374 q 436 352 446 322 q 456 292 456 230 l 456 25 l 532 25 l 532 0 l 296 0 l 296 25 l 361 25 l 361 269 q 361 325 354 347 q 347 368 317 368 q 270 368 232 320 q 194 271 194 189 l 194 25 l 258 25 l 258 0 l 30 0 l 30 25 z"},"h":{"x_min":0,"x_max":552,"ha":552,"o":"m 106 25 l 106 630 l 30 630 l 30 655 l 103 655 q 169 655 201 662 l 201 298 l 203 298 q 252 390 340 390 q 375 390 409 372 q 443 354 452 319 q 462 285 462 210 l 462 25 l 525 25 l 525 0 l 304 0 l 304 25 l 367 25 l 367 219 q 367 298 363 332 q 358 365 319 365 q 276 365 247 329 q 218 292 210 255 q 201 217 201 131 l 201 25 l 264 25 l 264 0 l 37 0 l 37 25 z"},"z":{"x_min":0,"x_max":427,"ha":427,"o":"m 57 231 l 57 384 l 385 384 l 385 363 l 150 22 l 217 22 q 277 22 312 50 q 347 77 366 164 l 385 164 l 385 0 l 42 0 l 42 25 l 276 362 l 209 362 q 176 362 153 355 q 130 349 109 320 q 87 292 77 231 z"},"B":{"x_min":0,"x_max":698,"ha":698,"o":"m 149 25 l 149 630 l 48 630 l 48 655 l 386 655 q 442 655 480 649 q 518 644 553 620 q 588 597 604 562 q 619 528 619 497 q 619 380 440 344 l 440 342 q 642 309 642 174 q 642 141 624 104 q 606 67 566 40 q 527 13 486 7 q 444 0 382 0 l 48 0 l 48 25 z m 365 630 l 265 630 l 265 355 l 355 355 q 446 355 472 391 q 497 426 497 503 q 497 563 480 590 q 464 618 438 624 q 413 630 365 630 z m 354 330 l 265 330 l 265 25 l 357 25 q 408 25 439 33 q 469 41 491 74 q 512 108 512 181 q 512 259 480 294 q 447 330 354 330 z"},"K":{"x_min":0,"x_max":792,"ha":792,"o":"m 176 25 l 176 630 l 73 630 l 73 655 l 395 655 l 395 630 l 292 630 l 292 25 l 395 25 l 395 0 l 73 0 l 73 25 z m 465 655 l 712 655 l 712 630 l 612 630 l 395 407 l 712 25 l 776 25 l 776 0 l 454 0 l 454 25 l 567 25 l 303 348 l 576 630 l 465 630 z"},"R":{"x_min":0,"x_max":760,"ha":760,"o":"m 169 25 l 169 630 l 66 630 l 66 655 l 425 655 q 495 655 540 643 q 585 630 618 592 q 651 554 651 504 q 651 442 603 403 q 555 365 441 345 l 441 343 q 523 327 575 280 q 628 234 628 123 q 628 60 643 42 q 658 24 684 24 q 701 24 725 31 l 725 7 q 683 -8 643 -8 q 562 -8 529 37 q 496 82 497 125 l 499 208 q 499 251 471 294 q 444 336 346 336 l 285 336 l 285 25 l 388 25 l 388 0 l 66 0 l 66 25 z m 285 630 l 285 359 l 373 359 q 430 359 459 366 q 489 374 507 406 q 525 438 525 508 q 525 565 507 591 q 489 618 463 624 q 438 630 396 630 z"},"T":{"x_min":0,"x_max":646,"ha":646,"o":"m 44 655 l 602 655 l 619 432 l 594 432 q 571 544 533 587 q 496 630 434 630 l 381 630 l 381 25 l 498 25 l 498 0 l 148 0 l 148 25 l 265 25 l 265 630 l 212 630 q 150 630 113 587 q 75 544 52 432 l 27 432 z"},"P":{"x_min":0,"x_max":656,"ha":656,"o":"m 269 300 l 269 25 l 375 25 l 375 0 l 49 0 l 49 25 l 153 25 l 153 630 l 49 630 l 49 655 l 386 655 q 500 655 558 604 q 616 553 616 479 q 616 403 558 351 q 500 300 364 300 z m 269 630 l 269 325 l 332 325 q 381 325 414 333 q 447 342 470 377 q 494 413 494 488 q 494 554 473 585 q 453 616 424 623 q 396 630 354 630 z"},"|":{"x_min":0,"x_max":527,"ha":527,"o":"m 237 670 l 291 670 l 291 -256 l 237 -256 z"},"t":{"x_min":0,"x_max":375,"ha":375,"o":"m 206 495 l 206 384 l 322 384 l 322 359 l 206 359 l 206 117 q 206 64 213 44 q 220 25 251 25 q 274 25 296 41 q 318 56 329 89 l 350 89 q 328 -6 214 -6 q 166 -6 144 11 q 121 29 116 54 q 111 80 111 123 l 111 359 l 24 359 l 24 384 l 111 384 l 111 487 q 159 487 206 495 z"},"M":{"x_min":0,"x_max":843,"ha":843,"o":"m 44 655 l 279 655 l 419 192 l 421 192 l 562 655 l 791 655 l 791 630 l 694 630 l 694 25 l 791 25 l 791 0 l 483 0 l 483 25 l 583 25 l 583 641 l 581 641 l 386 0 l 364 0 l 169 641 l 167 641 l 167 25 l 267 25 l 267 0 l 44 0 l 44 25 l 142 25 l 142 630 l 44 630 z"},"g":{"x_min":0,"x_max":490,"ha":490,"o":"m 367 333 q 396 292 396 253 q 396 186 342 152 q 288 117 254 117 l 229 116 q 212 116 183 118 q 154 121 152 121 q 133 121 107 104 q 82 86 82 67 q 82 50 95 41 q 108 32 161 32 l 328 39 q 380 39 413 6 q 446 -27 446 -89 q 446 -161 387 -210 q 328 -259 223 -259 q 142 -259 94 -226 q 47 -194 47 -150 q 47 -123 62 -105 q 77 -86 130 -56 q 49 -37 49 33 q 49 127 150 139 l 150 141 q 72 178 72 253 q 72 313 120 355 q 168 396 234 396 q 305 396 353 347 q 388 396 431 396 q 448 396 460 385 q 472 374 472 354 q 472 337 461 327 q 451 317 438 317 q 419 317 410 334 q 401 351 395 351 q 383 351 367 333 z m 232 371 q 185 371 173 347 q 162 323 162 267 q 162 186 173 163 q 183 139 233 139 q 284 139 294 163 q 304 187 304 280 q 304 337 286 354 q 268 371 232 371 z m 158 -56 q 112 -85 112 -143 q 112 -234 236 -234 q 315 -234 366 -197 q 418 -160 418 -110 q 418 -80 392 -64 q 366 -48 334 -48 q 321 -48 277 -51 q 232 -54 211 -54 z"},"j":{"x_min":0,"x_max":313,"ha":313,"o":"m 115 579 q 115 601 131 616 q 146 632 168 632 q 189 632 205 616 q 221 601 221 579 q 221 556 206 541 q 190 526 168 526 q 146 526 131 541 q 115 557 115 579 z m 217 391 l 217 39 q 217 -56 203 -115 q 188 -175 149 -215 q 109 -256 61 -256 q 25 -256 0 -237 q -24 -218 -24 -192 q -24 -174 -11 -162 q 1 -150 20 -150 q 38 -150 48 -160 q 59 -170 59 -182 q 59 -190 52 -203 q 46 -217 46 -222 q 46 -235 64 -235 q 98 -235 110 -198 q 122 -161 122 -45 l 122 359 l 34 359 l 34 384 l 121 384 q 179 384 217 391 z"},"i":{"x_min":0,"x_max":271,"ha":271,"o":"m 92 579 q 92 601 108 616 q 124 632 145 632 q 167 632 182 616 q 198 601 198 579 q 198 556 183 541 q 167 526 145 526 q 123 526 107 541 q 92 557 92 579 z m 190 391 l 190 25 l 254 25 l 254 0 l 27 0 l 27 25 l 95 25 l 95 359 l 27 359 l 27 384 l 96 384 q 146 384 190 391 z"},"y":{"x_min":0,"x_max":542,"ha":542,"o":"m 182 359 l 319 92 l 438 359 l 353 359 l 353 384 l 526 384 l 526 359 l 461 359 l 264 -87 q 222 -183 192 -221 q 163 -259 120 -259 q 94 -259 79 -242 q 65 -225 65 -204 q 65 -185 77 -172 q 90 -160 107 -160 q 131 -160 144 -182 q 157 -204 166 -204 q 179 -204 194 -180 q 209 -156 240 -87 l 272 -15 l 79 359 l 21 359 l 21 384 l 256 384 l 256 359 z"},"@":{"x_min":0,"x_max":921,"ha":921,"o":"m 688 468 l 599 161 q 585 112 585 87 q 585 74 594 62 q 604 50 621 50 q 694 50 762 146 q 829 241 829 369 q 829 499 741 584 q 652 669 513 669 q 332 669 213 530 q 94 391 94 204 q 94 31 202 -77 q 309 -186 476 -186 q 604 -186 707 -118 q 810 -50 868 84 l 896 84 q 849 -59 731 -137 q 613 -216 473 -216 q 291 -216 169 -93 q 47 30 47 217 q 47 419 183 557 q 318 695 509 695 q 670 695 764 599 q 858 503 858 360 q 858 228 782 122 q 707 15 588 15 q 514 15 514 82 q 514 115 523 152 l 521 154 q 413 15 330 15 q 291 15 266 50 q 242 84 242 128 q 242 241 335 356 q 428 471 511 471 q 580 471 594 403 l 596 403 l 611 457 z m 577 378 q 577 407 560 428 q 543 448 517 448 q 453 448 386 333 q 319 217 319 143 q 319 116 335 95 q 351 74 375 74 q 422 74 478 134 q 533 194 555 265 q 577 336 577 378 z"},".":{"x_min":0,"x_max":271,"ha":271,"o":"m 74 50 q 74 75 92 93 q 110 111 135 111 q 161 111 179 93 q 197 75 197 50 q 197 24 179 6 q 161 -12 135 -12 q 110 -12 92 6 q 74 24 74 50 z"},"p":{"x_min":0,"x_max":542,"ha":542,"o":"m 194 64 l 194 -228 l 273 -228 l 273 -256 l 33 -256 l 33 -228 l 99 -228 l 99 359 l 27 359 l 27 384 l 82 384 q 143 384 194 390 l 194 313 l 196 313 q 236 396 321 396 q 390 396 443 339 q 495 281 495 202 q 495 118 438 56 q 380 -6 310 -6 q 236 -6 196 64 z m 386 191 q 386 282 381 313 q 376 344 358 359 q 339 374 317 374 q 269 374 240 342 q 211 311 203 280 q 194 250 194 191 q 194 129 202 96 q 210 63 242 40 q 273 16 312 16 q 352 16 369 50 q 386 84 386 191 z"},"X":{"x_min":0,"x_max":813,"ha":813,"o":"m 449 373 l 702 25 l 784 25 l 784 0 l 455 0 l 455 25 l 567 25 l 379 284 l 174 25 l 302 25 l 302 0 l 43 0 l 43 25 l 142 25 l 362 305 l 126 630 l 43 630 l 43 655 l 369 655 l 369 630 l 261 630 l 432 396 l 618 630 l 506 630 l 506 655 l 743 655 l 743 630 l 651 630 z"},"*":{"x_min":0,"x_max":490,"ha":490,"o":"m 205 624 q 205 643 217 656 q 228 670 245 670 q 263 670 274 656 q 284 643 284 627 q 284 607 268 572 q 251 537 251 526 q 251 515 259 515 q 272 515 302 558 q 333 601 364 601 q 382 601 393 589 q 403 577 403 564 q 403 546 386 533 q 370 519 353 518 q 270 514 270 497 q 270 485 316 480 q 366 476 384 462 q 401 448 401 428 q 401 414 390 403 q 380 392 366 392 q 333 392 300 441 q 278 478 260 478 q 252 478 252 468 q 252 454 268 420 q 284 386 284 367 q 284 351 273 337 q 262 323 244 323 q 227 323 216 337 q 206 350 206 365 q 206 383 221 419 q 237 454 237 467 q 237 476 230 476 q 215 476 187 434 q 158 392 126 392 q 108 392 98 403 q 88 415 88 428 q 88 474 164 479 q 219 483 219 497 q 219 512 164 516 q 87 520 87 568 q 87 582 97 593 q 107 605 125 605 q 156 605 187 561 q 218 517 231 517 q 236 517 236 524 q 236 538 220 573 q 205 607 205 624 z"},"Y":{"x_min":0,"x_max":760,"ha":760,"o":"m 30 655 l 357 655 l 357 630 l 249 630 l 441 341 l 630 630 l 511 630 l 511 655 l 743 655 l 743 630 l 658 630 l 453 317 l 453 25 l 562 25 l 562 0 l 226 0 l 226 25 l 337 25 l 337 300 l 117 630 l 30 630 z"},"c":{"x_min":0,"x_max":427,"ha":427,"o":"m 379 133 l 400 133 q 385 62 342 25 q 299 -12 239 -12 q 156 -12 99 49 q 42 110 42 190 q 42 272 101 334 q 159 396 246 396 q 308 396 347 365 q 386 333 386 294 q 386 274 373 259 q 359 243 338 243 q 317 243 303 256 q 289 270 289 291 q 289 306 301 321 q 313 335 313 341 q 313 354 295 364 q 277 374 248 374 q 197 374 173 347 q 148 319 148 231 q 148 143 153 100 q 157 58 177 34 q 197 10 243 10 q 340 10 379 133 z"},"!":{"x_min":0,"x_max":271,"ha":271,"o":"m 148 198 l 124 198 q 123 316 117 372 q 111 427 96 498 q 81 569 81 600 q 81 625 98 643 q 114 662 138 662 q 163 662 178 643 q 194 624 194 596 q 194 557 177 481 q 159 404 154 354 q 149 303 148 198 z m 74 50 q 74 76 93 93 q 111 111 136 111 q 161 111 179 93 q 197 75 197 50 q 197 24 179 6 q 161 -12 136 -12 q 111 -12 93 6 q 74 24 74 50 z"},"/":{"x_min":0,"x_max":281,"ha":281,"o":"m 281 670 l 53 -15 l 0 -15 l 228 670 z"},"[":{"x_min":0,"x_max":333,"ha":333,"o":"m 94 -241 l 94 657 l 305 657 l 305 632 l 169 632 l 169 -217 l 305 -217 l 305 -241 z"},"6":{"x_min":0,"x_max":490,"ha":490,"o":"m 408 662 l 408 632 q 186 604 160 370 l 162 368 q 207 420 269 420 q 344 420 399 358 q 453 295 453 213 q 453 124 394 55 q 335 -14 254 -14 q 165 -14 106 65 q 48 144 48 263 q 48 422 150 533 q 251 644 408 662 z m 155 325 l 152 239 q 152 60 188 35 q 224 10 254 10 q 300 10 324 49 q 349 87 349 207 q 349 333 326 365 q 304 396 262 396 q 205 396 155 325 z"},"r":{"x_min":0,"x_max":375,"ha":375,"o":"m 98 25 l 98 359 l 19 359 l 19 384 l 99 384 q 161 384 193 390 l 193 298 l 195 298 q 229 390 296 390 q 325 390 343 372 q 361 354 361 329 q 361 306 346 291 q 332 277 309 277 q 267 277 267 319 l 269 340 q 269 351 259 351 q 243 351 218 308 q 193 264 193 175 l 193 25 l 274 25 l 274 0 l 19 0 l 19 25 z"},"2":{"x_min":0,"x_max":490,"ha":490,"o":"m 432 181 l 416 0 l 50 0 l 50 58 q 107 122 218 225 q 328 327 328 451 q 328 521 297 564 q 267 607 210 607 q 160 607 128 575 q 96 543 96 506 q 96 487 105 487 q 107 487 113 490 q 129 501 144 501 q 163 501 177 486 q 190 471 190 451 q 190 431 175 416 q 161 401 139 401 q 109 401 89 427 q 69 453 69 492 q 69 552 118 597 q 167 643 244 643 q 320 643 375 601 q 429 559 429 491 q 429 419 381 359 q 333 299 239 211 q 145 124 105 81 l 327 81 q 389 81 395 91 q 400 102 404 139 l 408 181 z"},"{":{"x_min":0,"x_max":480,"ha":480,"o":"m 392 -231 l 392 -248 q 306 -235 258 -179 q 209 -123 209 -60 q 209 -22 220 20 q 231 62 231 96 q 231 126 204 158 q 177 189 120 198 l 120 217 q 177 226 204 257 q 231 289 231 319 q 231 353 220 395 q 209 437 209 475 q 209 538 258 594 q 306 650 392 663 l 392 645 q 335 633 309 602 q 282 570 282 534 q 282 493 294 453 q 304 411 304 376 q 304 328 270 282 q 235 237 160 210 l 160 208 q 230 182 267 135 q 304 88 304 39 q 304 4 294 -38 q 282 -78 282 -119 q 282 -156 309 -186 q 335 -216 392 -231 z"},"9":{"x_min":0,"x_max":490,"ha":490,"o":"m 89 -35 l 89 -15 q 301 20 336 262 l 334 264 q 288 212 225 212 q 156 212 99 274 q 42 335 42 418 q 42 506 97 574 q 153 642 239 642 q 330 642 390 567 q 449 492 449 371 q 449 216 346 102 q 243 -13 89 -35 z m 340 302 l 345 465 q 345 620 243 620 q 192 620 169 579 q 146 538 146 384 q 146 237 231 237 q 291 237 340 302 z"}," ":{"x_min":0,"x_max":245,"ha":245,"o":""},"I":{"x_min":0,"x_max":427,"ha":427,"o":"m 155 25 l 155 630 l 48 630 l 48 655 l 379 655 l 379 630 l 271 630 l 271 25 l 379 25 l 379 0 l 48 0 l 48 25 z"},"H":{"x_min":0,"x_max":813,"ha":813,"o":"m 149 25 l 149 630 l 46 630 l 46 655 l 369 655 l 369 630 l 265 630 l 265 350 l 548 350 l 548 630 l 446 630 l 446 655 l 767 655 l 767 630 l 664 630 l 664 25 l 767 25 l 767 0 l 446 0 l 446 25 l 548 25 l 548 325 l 265 325 l 265 25 l 369 25 l 369 0 l 46 0 l 46 25 z"},"4":{"x_min":0,"x_max":490,"ha":490,"o":"m 349 643 l 349 199 l 431 199 l 431 271 l 455 271 l 455 96 l 431 96 l 431 174 l 349 174 l 349 25 l 423 25 l 423 0 l 172 0 l 172 25 l 255 25 l 255 174 l 25 174 l 25 199 q 189 506 303 643 z m 255 199 l 255 537 l 253 537 q 169 413 53 199 z"},"~":{"x_min":0,"x_max":667,"ha":667,"o":"m 572 392 l 595 392 q 593 326 558 289 q 523 252 474 252 q 447 252 419 261 q 391 270 303 306 q 214 342 185 342 q 112 342 95 253 l 72 253 q 77 327 111 360 q 145 393 189 393 q 236 393 375 334 q 448 302 482 302 q 517 302 542 324 q 567 347 572 392 z"},"D":{"x_min":0,"x_max":760,"ha":760,"o":"m 147 25 l 147 630 l 45 630 l 45 655 l 354 655 q 457 655 530 626 q 603 597 651 512 q 700 427 700 328 q 700 223 646 141 q 593 58 523 29 q 453 0 352 0 l 45 0 l 45 25 z m 263 630 l 263 25 l 348 25 q 415 25 457 37 q 500 49 527 90 q 555 131 564 194 q 574 257 574 359 q 574 481 543 541 q 512 601 467 615 q 422 630 350 630 z"},"^":{"x_min":0,"x_max":469,"ha":469,"o":"m 245 670 l 451 320 l 392 320 l 235 587 l 79 320 l 18 320 l 225 670 z"},"0":{"x_min":0,"x_max":490,"ha":490,"o":"m 244 -14 q 160 -14 101 85 q 41 185 41 307 q 41 438 102 540 q 162 643 247 643 q 329 643 389 540 q 449 437 449 313 q 449 192 389 89 q 328 -14 244 -14 z m 345 242 l 345 410 q 345 619 247 619 q 198 619 171 570 q 145 521 145 400 l 145 210 q 145 10 246 10 q 295 10 320 62 q 345 114 345 242 z"},"F":{"x_min":0,"x_max":646,"ha":646,"o":"m 158 25 l 158 630 l 55 630 l 55 655 l 608 655 l 616 457 l 594 457 q 594 466 577 524 q 560 582 527 606 q 494 630 416 630 l 274 630 l 274 346 l 301 346 q 344 346 369 352 q 394 358 412 385 q 430 412 434 469 l 459 469 l 459 192 l 434 192 q 430 254 414 282 q 398 311 374 317 q 350 323 301 323 l 274 323 l 274 25 l 389 25 l 389 0 l 55 0 l 55 25 z"},"`":{"x_min":0,"x_max":333,"ha":333,"o":"m 223 457 l 101 531 q 48 563 37 577 q 27 591 27 605 q 27 620 39 632 q 51 643 66 643 q 83 643 97 632 q 110 621 138 587 l 236 469 z"},"k":{"x_min":0,"x_max":531,"ha":531,"o":"m 95 25 l 95 630 l 25 630 l 25 655 l 90 655 q 138 655 190 662 l 190 25 l 253 25 l 253 0 l 25 0 l 25 25 z m 362 25 l 201 214 l 357 359 l 275 359 l 275 384 l 481 384 l 481 359 l 388 359 l 280 259 l 481 25 l 524 25 l 524 0 l 292 0 l 292 25 z"},"u":{"x_min":0,"x_max":542,"ha":542,"o":"m 449 384 l 449 25 l 515 25 l 515 0 l 449 0 q 373 0 353 -6 l 353 85 l 351 85 q 307 -6 213 -6 q 159 -6 126 23 q 93 51 93 143 l 93 359 l 22 359 l 22 384 l 188 384 l 188 126 q 188 65 195 42 q 203 19 233 19 q 278 19 316 67 q 354 115 354 212 l 354 359 l 276 359 l 276 384 z"},"]":{"x_min":0,"x_max":333,"ha":333,"o":"m 239 657 l 239 -241 l 28 -241 l 28 -216 l 164 -216 l 164 632 l 28 632 l 28 657 z"},"U":{"x_min":0,"x_max":760,"ha":760,"o":"m 598 630 l 491 630 l 491 655 l 725 655 l 725 630 l 622 630 l 622 234 q 622 148 609 107 q 596 66 562 38 q 528 10 480 -2 q 433 -15 382 -15 q 274 -15 225 19 q 175 52 163 102 q 152 151 152 234 l 152 630 l 57 630 l 57 655 l 370 655 l 370 630 l 267 630 l 267 245 q 267 166 274 120 q 282 75 314 44 q 346 14 416 14 q 473 14 518 37 q 562 61 580 100 q 598 139 598 245 z"},"o":{"x_min":0,"x_max":490,"ha":490,"o":"m 44 193 q 44 277 102 337 q 160 396 246 396 q 330 396 388 339 q 447 282 447 197 q 447 109 386 49 q 326 -12 243 -12 q 162 -12 103 47 q 44 106 44 193 z m 337 193 q 337 283 331 312 q 325 340 303 357 q 282 374 245 374 q 210 374 187 357 q 165 339 159 311 q 154 282 154 192 q 154 102 160 72 q 167 43 189 26 q 211 10 245 10 q 279 10 302 27 q 325 43 331 73 q 337 104 337 193 z"},"N":{"x_min":0,"x_max":760,"ha":760,"o":"m 622 630 l 622 -15 l 602 -15 l 171 633 l 169 633 l 169 25 l 280 25 l 280 0 l 47 0 l 47 25 l 144 25 l 144 630 l 40 630 l 40 655 l 290 655 l 595 196 l 597 196 l 597 630 l 489 630 l 489 655 l 721 655 l 721 630 z"},"+":{"x_min":0,"x_max":667,"ha":667,"o":"m 69 348 l 307 348 l 307 585 l 359 585 l 359 348 l 597 348 l 597 296 l 359 296 l 359 59 l 307 59 l 307 296 l 69 296 z"},"G":{"x_min":0,"x_max":708,"ha":708,"o":"m 462 219 l 351 219 l 351 244 l 690 244 l 690 219 l 595 219 q 595 94 515 39 q 434 -15 346 -15 q 218 -15 132 87 q 47 190 47 327 q 47 466 134 568 q 222 670 352 670 q 419 670 481 631 q 500 619 507 619 q 522 619 538 647 l 560 647 l 567 469 l 542 469 q 501 645 350 645 q 271 645 235 610 q 199 574 191 520 q 183 466 183 366 q 183 186 195 127 q 207 69 244 39 q 281 10 335 10 q 378 10 411 27 q 445 45 453 80 q 462 115 462 184 z"},"q":{"x_min":0,"x_max":542,"ha":542,"o":"m 352 64 l 350 64 q 310 -6 236 -6 q 166 -6 108 56 q 51 118 51 202 q 51 281 103 339 q 156 396 225 396 q 310 396 350 313 l 352 313 l 352 390 q 410 384 464 384 l 519 384 l 519 359 l 447 359 l 447 -228 l 513 -228 l 513 -256 l 273 -256 l 273 -228 l 352 -228 z m 352 191 q 352 250 343 281 q 334 311 305 343 q 277 374 229 374 q 206 374 187 358 q 169 343 165 309 q 160 275 160 191 q 160 84 177 50 q 194 16 234 16 q 273 16 304 40 q 335 63 344 96 q 352 129 352 191 z"},"d":{"x_min":0,"x_max":531,"ha":531,"o":"m 441 662 l 441 25 l 507 25 l 507 0 l 452 0 q 400 0 343 -6 l 343 74 l 341 74 q 302 -12 216 -12 q 147 -12 94 49 q 42 110 42 188 q 42 271 97 333 q 153 396 228 396 q 305 396 341 327 l 343 327 l 343 630 l 254 630 l 254 655 l 343 655 q 392 655 441 662 z m 231 374 q 178 374 164 334 q 151 294 151 173 q 151 68 168 41 q 185 13 223 13 q 264 13 295 41 q 327 69 336 104 q 346 140 346 220 q 346 296 315 335 q 285 374 231 374 z"},"1":{"x_min":0,"x_max":490,"ha":490,"o":"m 292 643 l 292 25 l 405 25 l 405 0 l 87 0 l 87 25 l 199 25 l 199 598 l 87 598 l 87 623 l 104 623 q 211 623 292 643 z"},"5":{"x_min":0,"x_max":490,"ha":490,"o":"m 123 545 l 115 362 q 167 378 216 378 q 308 378 370 324 q 431 270 431 189 q 431 103 364 44 q 297 -14 206 -14 q 131 -14 91 24 q 51 63 51 113 q 51 135 64 150 q 78 166 102 166 q 122 166 135 152 q 148 139 148 118 q 148 83 117 70 q 104 64 104 59 q 104 45 130 30 q 156 14 196 14 q 323 14 323 172 q 323 351 187 351 q 147 351 125 340 q 103 328 98 328 q 88 328 89 347 l 98 545 q 101 604 113 617 q 125 631 184 631 l 289 631 q 336 631 348 635 q 360 640 365 662 l 386 662 q 383 581 362 563 q 340 545 287 545 z"}}}
